<svg width="512" height="512" viewBox="0 0 512 512" fill="none" xmlns="http://www.w3.org/2000/svg">
<path d="M228.988 94.7236C186.623 139.044 150.124 182.061 148.169 190.534C144.258 202.917 150.124 212.042 180.105 241.371L215.953 277.87L227.684 260.273C238.764 242.675 238.764 242.023 215.301 218.56L191.837 195.096L251.148 133.178C283.736 98.6343 313.066 69.9565 316.325 68.6529C322.191 66.0459 445.375 178.15 445.375 186.623C445.375 189.882 418.652 221.167 385.412 257.014C326.101 320.887 325.45 321.539 309.807 311.111C294.816 301.334 292.861 301.334 279.826 315.021L266.139 328.708L287.647 348.261C321.539 378.895 330.012 374.984 408.224 294.165C491.65 207.48 500.123 196.399 494.257 178.802C488.392 160.552 331.315 15.2079 316.977 15.2079C310.459 15.2079 271.353 51.0552 228.988 94.7236Z" fill="#5A78DA"/>
<path d="M93.4201 101.241C34.1092 162.508 15.8597 185.319 15.2079 199.007C15.2079 212.694 31.5021 231.595 95.3754 291.558C145.562 339.788 180.105 367.163 189.23 367.163C204.872 367.163 346.958 227.033 356.734 200.962C363.904 182.061 351.52 160.552 318.28 135.133C296.12 118.187 294.816 118.187 282.433 129.267C269.397 140.999 269.397 141.651 293.513 166.418L317.628 191.185L295.468 215.301C236.809 279.174 194.444 321.539 187.926 321.539C184.016 321.539 153.383 294.165 120.143 260.273L58.8764 198.355L85.5989 167.07C99.9378 150.124 127.964 120.143 147.517 101.241C182.061 66.6976 183.364 66.0458 199.006 76.4741C213.997 86.2506 215.952 86.2506 227.033 73.867C238.764 60.8317 238.764 60.1799 220.515 41.2786C189.23 8.69021 179.453 13.2526 93.4201 101.241Z" fill="#3350AC"/>
<path d="M34.761 442.116V490.999L66.0459 489.695C94.0719 489.043 94.7237 488.392 72.5635 486.436C50.4034 483.829 47.7963 481.874 47.7963 464.928C47.7963 448.634 50.4034 446.027 69.3047 443.42L90.1613 440.812L69.3047 440.161C50.4034 438.857 47.7963 436.902 47.7963 419.956C47.7963 402.358 50.4034 400.403 72.5635 397.796C94.7237 395.84 94.0719 395.189 66.0459 394.537L34.761 393.233V442.116Z" fill="#3350AC"/>
<path d="M124.053 423.866C113.625 434.295 120.794 450.589 139.044 458.41C165.115 469.49 164.463 484.481 137.74 484.481C122.098 484.481 118.839 486.436 124.053 491.65C128.616 496.213 139.044 497.516 148.169 494.909C171.632 489.043 171.632 462.321 148.169 450.589C127.964 440.812 129.267 429.081 150.776 429.081C158.597 429.732 165.115 427.125 165.115 424.518C165.115 418.001 129.919 417.349 124.053 423.866Z" fill="#3350AC"/>
<path d="M195.748 423.215C187.275 432.339 191.185 482.526 200.962 490.999C213.997 502.079 243.327 493.606 243.327 479.267C243.327 470.794 242.023 470.142 237.461 476.66C234.854 481.874 225.077 484.481 216.604 483.177C203.569 481.874 200.962 477.311 200.962 459.062C200.962 429.732 219.863 416.697 234.202 435.598L244.63 448.634L242.023 435.598C240.72 426.474 234.202 421.911 220.515 420.608C209.435 419.304 198.355 420.608 195.748 423.215Z" fill="#3350AC"/>
<path d="M273.96 423.215C266.139 431.036 268.746 481.222 277.219 489.695C287.647 500.123 311.762 499.472 320.887 488.392C325.45 483.177 328.057 466.231 326.753 450.589C324.798 423.867 324.146 422.563 301.986 420.608C288.951 419.304 276.567 420.608 273.96 423.215ZM313.718 457.107C315.673 482.526 314.369 484.481 299.379 484.481C284.388 484.481 282.433 481.874 282.433 459.714C282.433 431.688 286.995 424.518 301.986 427.125C308.504 428.429 312.414 438.205 313.718 457.107Z" fill="#3350AC"/>
<path d="M358.69 423.866C348.261 434.295 355.431 450.589 373.68 458.41C399.751 469.49 399.099 484.481 372.377 484.481C356.734 484.481 353.476 486.436 358.69 491.65C363.252 496.213 373.68 497.516 382.805 494.909C406.269 489.043 406.269 462.321 382.805 450.589C362.6 440.812 363.904 429.081 385.412 429.081C393.233 429.732 399.751 427.125 399.751 424.518C399.751 418.001 364.556 417.349 358.69 423.866Z" fill="#3350AC"/>
<path d="M430.384 423.867C427.777 425.822 425.822 442.116 425.822 459.062C425.822 480.57 428.429 490.999 436.25 493.606C453.196 500.123 469.49 498.168 477.311 488.392C483.177 481.222 479.919 479.919 460.365 480.57C442.116 481.222 435.598 478.615 433.643 469.49C431.688 460.366 436.25 458.41 457.758 458.41C479.267 458.41 484.481 455.803 484.481 446.678C484.481 440.161 481.222 431.688 476.66 427.125C468.187 418.652 437.554 416.697 430.384 423.867ZM470.142 440.812C472.097 448.634 468.187 451.893 456.455 451.893C436.25 451.893 430.384 445.375 440.161 434.295C449.937 422.563 467.535 426.474 470.142 440.812Z" fill="#3350AC"/>
</svg>
