
<svg version="1.0" xmlns="http://www.w3.org/2000/svg"
 width="200" height="200" viewBox="0 0 140 140">

<g transform="translate(0,140) scale(0.09,-0.09)"
 stroke="none">
<path d="M958 1258 c-65 -68 -121 -134 -124 -147 -6 -19 3 -33 49 -78 l55 -56
18 27 c17 27 17 28 -19 64 l-36 36 91 95 c50 53 95 97 100 99 9 4 198 -168
198 -181 0 -5 -41 -53 -92 -108 -91 -98 -92 -99 -116 -83 -23 15 -26 15 -46
-6 l-21 -21 33 -30 c52 -47 65 -41 185 83 128 133 141 150 132 177 -9 28 -250
251 -272 251 -10 0 -70 -55 -135 -122z" fill="#5a78da"/>
<path d="M750 1248 c-91 -94 -119 -129 -120 -150 0 -21 25 -50 123 -142 77
-74 130 -116 144 -116 24 0 242 215 257 255 11 29 -8 62 -59 101 -34 26 -36
26 -55 9 -20 -18 -20 -19 17 -57 l37 -38 -34 -37 c-90 -98 -155 -163 -165
-163 -6 0 -53 42 -104 94 l-94 95 41 48 c22 26 65 72 95 101 53 53 55 54 79
38 23 -15 26 -15 43 4 18 20 18 21 -10 50 -48 50 -63 43 -195 -92z" fill="#3350ac"/>
<path d="M660 725 l0 -75 48 2 c43 1 44 2 10 5 -34 4 -38 7 -38 33 0 25 4 29
33 33 l32 4 -32 1 c-29 2 -33 5 -33 31 0 27 4 30 38 34 34 3 33 4 -10 5 l-48
2 0 -75z" fill="#3350ac"/>
<path d="M797 753 c-16 -16 -5 -41 23 -53 40 -17 39 -40 -2 -40 -24 0 -29 -3
-21 -11 7 -7 23 -9 37 -5 36 9 36 50 0 68 -31 15 -29 33 4 33 12 -1 22 3 22 7
0 10 -54 11 -63 1z" fill="#3350ac"/>
<path d="M907 754 c-13 -14 -7 -91 8 -104 20 -17 65 -4 65 18 0 13 -2 14 -9 4
-4 -8 -19 -12 -32 -10 -20 2 -24 9 -24 37 0 45 29 65 51 36 l16 -20 -4 20 c-2
14 -12 21 -33 23 -17 2 -34 0 -38 -4z" fill="#3350ac"/>
<path d="M1027 754 c-12 -12 -8 -89 5 -102 16 -16 53 -15 67 2 7 8 11 34 9 58
-3 41 -4 43 -38 46 -20 2 -39 0 -43 -4z m61 -52 c3 -39 1 -42 -22 -42 -23 0
-26 4 -26 38 0 43 7 54 30 50 10 -2 16 -17 18 -46z" fill="#3350ac"/>
<path d="M1157 753 c-16 -16 -5 -41 23 -53 40 -17 39 -40 -2 -40 -24 0 -29 -3
-21 -11 7 -7 23 -9 37 -5 36 9 36 50 0 68 -31 15 -29 33 4 33 12 -1 22 3 22 7
0 10 -54 11 -63 1z" fill="#3350ac"/>
<path d="M1267 753 c-4 -3 -7 -28 -7 -54 0 -33 4 -49 16 -53 26 -10 51 -7 63
8 9 11 4 13 -26 12 -28 -1 -38 3 -41 17 -3 14 4 17 37 17 33 0 41 4 41 18 0
10 -5 23 -12 30 -13 13 -60 16 -71 5z m61 -26 c3 -12 -3 -17 -21 -17 -31 0
-40 10 -25 27 15 18 42 12 46 -10z" fill="#3350ac"/>
</g>
</svg>
